<svg xmlns="http://www.w3.org/2000/svg" version="1.0" preserveAspectRatio="xMidYMid meet" viewBox="35.11 449 1129.65 374.3">

<g transform="translate(0.000000,1200.000000) scale(0.100000,-0.100000)" fill="#000000" stroke="none">
<path d="M4276 7490 c-157 -61 -227 -188 -184 -332 25 -85 136 -170 264 -203 33 -8 120 -22 194 -30 231 -27 314 -48 468 -120 227 -107 423 -289 587 -545 142 -221 295 -632 351 -942 9 -51 20 -97 24 -101 4 -5 13 22 19 60 7 37 28 129 47 203 187 719 508 1170 966 1354 109 44 235 72 394 90 215 24 286 46 382 116 54 39 102 133 102 201 0 91 -78 196 -179 242 -64 29 -237 35 -360 13 -418 -77 -775 -363 -1028 -826 -170 -310 -291 -772 -331 -1265 l-8 -90 -12 115 c-41 370 -78 570 -144 785 -216 705 -643 1164 -1187 1276 -126 26 -297 25 -365 -1z"/>
<path d="M4290 6509 c-355 -45 -612 -219 -756 -509 -50 -101 -74 -200 -81 -325 -16 -318 131 -565 397 -662 68 -25 88 -27 210 -28 120 0 139 2 176 22 127 68 174 172 125 278 -91 202 -483 194 -568 -10 -10 -25 -21 -45 -25 -45 -14 0 -60 116 -75 188 -39 190 53 400 230 526 159 113 341 169 547 170 128 1 173 -6 314 -51 359 -112 689 -468 897 -968 55 -133 121 -317 115 -323 -3 -2 -28 19 -57 48 -102 102 -212 150 -343 150 -87 0 -147 -25 -176 -72 -25 -41 -25 -51 1 -105 28 -58 81 -88 194 -107 231 -40 383 -125 462 -258 26 -45 36 -82 63 -233 47 -273 43 -265 66 -124 36 225 63 330 98 378 93 126 223 194 452 237 100 18 127 30 167 71 64 68 51 149 -33 191 -87 43 -253 22 -362 -47 -27 -17 -71 -53 -99 -81 -28 -27 -52 -50 -54 -50 -18 0 92 283 180 465 228 468 533 754 905 851 146 37 322 40 460 6 182 -46 366 -154 452 -267 79 -104 126 -247 114 -351 -8 -67 -42 -180 -69 -223 l-20 -33 -19 50 c-37 100 -152 165 -288 164 -304 -2 -411 -292 -156 -424 50 -26 199 -36 291 -19 225 42 389 186 461 406 27 84 29 100 29 245 -1 148 -2 159 -33 250 -52 150 -103 231 -217 345 -145 145 -287 219 -502 262 -117 23 -353 23 -482 0 -517 -94 -883 -476 -1104 -1152 -87 -265 -139 -541 -185 -985 l-8 -75 -13 125 c-36 352 -76 579 -143 815 -177 631 -482 1038 -904 1205 -185 74 -434 105 -634 79z"/>
<path d="M10789 6020 c-89 -47 -193 -224 -228 -385 -29 -132 -44 -331 -36 -462 4 -64 11 -113 17 -113 27 0 249 259 334 390 88 137 143 313 131 425 -14 136 -112 201 -218 145z"/>
<path d="M2405 5953 c-373 -46 -680 -284 -798 -617 -51 -144 -71 -364 -47 -526 5 -35 8 -65 6 -67 -1 -1 -32 13 -68 32 -83 44 -197 74 -313 82 -312 20 -608 -175 -721 -477 -26 -69 -28 -86 -29 -215 0 -133 1 -143 28 -200 57 -122 168 -196 295 -198 212 -2 307 146 221 346 -16 40 -40 83 -52 95 -27 29 -109 72 -137 72 -11 0 -23 7 -26 15 -10 25 56 123 125 186 80 74 144 100 267 106 115 7 212 -13 323 -67 120 -58 193 -112 316 -230 142 -138 227 -201 350 -260 410 -199 904 -183 1430 45 61 26 146 63 190 83 409 177 819 262 1130 233 218 -21 383 -68 562 -160 95 -49 248 -145 285 -178 10 -9 18 -12 18 -7 0 16 -170 193 -243 253 -208 169 -452 285 -712 338 -127 25 -500 25 -630 0 -103 -21 -207 -48 -315 -82 -93 -30 -217 -45 -382 -45 -350 0 -610 99 -747 284 -54 73 -74 116 -115 247 -59 189 -129 253 -249 227 -87 -18 -167 -121 -167 -213 0 -60 46 -209 93 -300 62 -121 173 -228 297 -288 208 -99 445 -119 784 -67 71 11 131 20 135 20 17 0 -51 -37 -117 -62 -478 -186 -919 -164 -1246 62 -315 218 -469 590 -378 912 40 142 150 279 290 362 83 50 236 104 319 112 l58 6 34 -66 c42 -83 113 -163 166 -187 73 -34 168 -17 217 38 25 28 48 88 48 125 -1 110 -104 193 -276 223 -82 14 -151 17 -219 8z"/>
<path d="M9344 5946 c-174 -33 -274 -116 -274 -227 0 -92 89 -179 181 -179 96 1 180 69 249 201 l40 77 72 -14 c101 -19 159 -39 258 -87 119 -58 241 -178 294 -291 52 -110 69 -197 63 -321 -7 -117 -24 -188 -72 -291 -205 -446 -698 -664 -1245 -554 -155 32 -380 107 -431 145 l-24 17 28 -6 c154 -35 434 -53 576 -37 224 27 370 90 497 216 70 68 89 95 132 185 95 197 103 328 26 419 -46 53 -81 71 -141 72 -117 2 -169 -57 -233 -271 -97 -324 -386 -490 -855 -490 -154 0 -287 16 -375 45 -258 84 -436 110 -695 102 -124 -4 -208 -12 -270 -25 -332 -73 -619 -237 -855 -490 -49 -53 -90 -100 -90 -105 0 -4 48 32 108 81 206 169 389 264 594 309 100 22 350 21 482 -1 154 -26 378 -92 608 -180 64 -24 134 -54 398 -169 433 -187 813 -231 1186 -137 232 58 400 155 589 340 66 64 147 135 180 157 340 229 679 199 836 -73 36 -63 37 -84 6 -84 -42 0 -130 -53 -164 -98 -79 -105 -82 -285 -6 -354 68 -62 201 -78 308 -38 78 30 164 114 189 185 28 76 33 247 11 338 -50 207 -197 382 -403 479 -114 54 -202 71 -332 65 -125 -7 -198 -25 -305 -77 -44 -21 -81 -37 -82 -36 -1 1 3 33 9 71 17 109 4 321 -26 442 -72 288 -277 516 -567 631 -148 59 -344 83 -475 58z"/>
<path d="M1080 5883 c-67 -35 -102 -129 -85 -235 30 -198 107 -342 299 -563 112 -128 164 -177 172 -163 4 6 7 97 6 202 0 144 -6 220 -21 309 -54 308 -230 522 -371 450z"/>
<path d="M11365 5563 c-192 -43 -359 -147 -570 -357 l-120 -119 40 -9 c50 -12 363 6 475 28 252 47 446 180 457 313 8 95 -63 152 -189 150 -40 -1 -82 -3 -93 -6z"/>
<path d="M433 5410 c-121 -54 -106 -197 32 -301 119 -89 259 -138 465 -162 141 -17 376 -22 384 -8 14 22 -228 250 -369 346 -179 123 -399 177 -512 125z"/>
</g>
</svg>