<svg xmlns="http://www.w3.org/2000/svg" version="1.0" preserveAspectRatio="xMidYMid meet" viewBox="0.55 0.42 510.9 511.03">
<g transform="translate(0.000000,512.000000) scale(0.100000,-0.100000)" stroke="none">
<path d="M2350 5110 c-786 -72 -1483 -483 -1914 -1130 -218 -327 -347 -661 -408 -1055 -30 -199 -30 -531 0 -730 113 -731 509 -1358 1112 -1759 327 -218 661 -347 1055 -408 199 -30 531 -30 730 0 394 61 728 190 1055 408 603 401 999 1028 1112 1759 30 199 30 531 0 730 -61 394 -190 728 -408 1055 -401 602 -1037 1004 -1757 1111 -152 22 -438 32 -577 19z m-372 -546 c12 -4 22 -13 22 -21 0 -17 41 -96 53 -101 4 -2 7 -10 7 -18 0 -8 4 -22 9 -32 26 -50 51 -110 57 -135 3 -15 10 -30 15 -33 5 -3 9 -18 9 -34 0 -16 4 -31 9 -34 4 -3 11 -23 14 -45 3 -22 12 -54 21 -72 9 -18 16 -54 16 -80 0 -26 5 -51 10 -54 6 -4 10 -75 10 -180 0 -105 -4 -176 -10 -180 -5 -3 -10 -19 -10 -34 0 -16 -18 -63 -40 -106 -22 -43 -45 -95 -50 -117 -6 -21 -22 -49 -36 -60 -13 -12 -24 -25 -24 -30 0 -16 -87 -98 -104 -98 -8 0 -21 -9 -28 -20 -7 -11 -18 -20 -24 -20 -6 0 -17 -6 -23 -14 -18 -21 -157 -86 -185 -86 -13 0 -26 -7 -30 -15 -3 -8 -11 -15 -18 -15 -7 0 -19 -9 -25 -19 -7 -11 -25 -22 -42 -26 -16 -3 -32 -13 -35 -21 -3 -8 -11 -14 -18 -14 -7 0 -19 -9 -26 -20 -7 -11 -20 -20 -30 -20 -10 0 -33 -11 -52 -25 -19 -14 -38 -25 -43 -25 -5 0 -16 -9 -25 -19 -10 -11 -37 -30 -62 -43 -63 -33 -98 -66 -105 -99 -4 -15 -17 -35 -31 -43 -17 -12 -24 -26 -24 -49 0 -18 -5 -38 -11 -44 -6 -6 -13 -59 -16 -117 -5 -83 -3 -110 9 -128 14 -22 33 -77 30 -90 -1 -3 5 -12 13 -18 8 -7 15 -18 15 -25 0 -15 87 -95 104 -95 8 0 19 -7 26 -15 19 -22 109 -19 138 4 12 11 22 26 22 35 0 8 5 18 10 21 6 3 10 17 10 30 0 13 -4 27 -10 30 -5 3 -10 33 -10 66 0 44 -4 61 -15 66 -26 9 -45 59 -45 116 0 49 3 57 32 81 17 14 40 26 49 26 20 0 75 -43 90 -72 14 -26 21 -271 11 -397 -10 -128 11 -340 39 -393 5 -10 9 -29 9 -43 0 -14 8 -33 18 -43 24 -24 38 -102 20 -114 -19 -12 -126 -10 -151 3 -12 7 -29 18 -37 26 -53 48 -73 63 -89 63 -21 0 -58 38 -63 65 -2 15 -12 21 -43 23 -36 3 -43 8 -73 58 -18 30 -37 54 -42 54 -30 0 -120 127 -120 170 0 9 -11 26 -23 39 -22 20 -70 108 -96 177 -20 51 -5 349 19 379 5 6 11 28 15 50 4 22 13 50 21 62 8 12 14 30 14 39 0 22 101 224 112 224 4 0 15 18 24 40 9 22 20 40 25 40 5 0 9 7 9 15 0 22 67 122 111 165 21 21 39 42 39 46 0 5 20 30 45 56 25 27 53 66 62 88 10 22 25 42 34 45 26 9 76 58 84 85 12 39 46 78 77 89 20 7 30 19 34 39 3 17 16 35 28 41 11 7 37 45 56 86 19 41 38 75 43 75 4 0 7 4 7 10 0 5 11 26 25 46 14 20 25 44 25 53 0 9 7 30 16 46 9 17 20 55 25 85 4 30 13 78 19 105 20 92 22 117 12 138 -6 12 -13 60 -16 107 -3 47 -9 122 -12 168 l-7 82 39 0 c22 0 49 -3 62 -6z m1170 -323 c7 -21 12 -69 12 -107 0 -38 5 -118 10 -179 5 -60 10 -166 11 -235 1 -83 6 -132 14 -146 7 -11 16 -56 19 -100 17 -223 26 -406 31 -664 6 -243 4 -298 -10 -375 -9 -49 -19 -114 -22 -143 -3 -33 -10 -55 -19 -59 -8 -3 -14 -17 -14 -32 0 -27 -22 -93 -58 -171 -11 -25 -26 -64 -33 -87 -7 -24 -18 -43 -25 -43 -7 0 -16 -19 -19 -45 -5 -28 -13 -46 -24 -50 -9 -3 -21 -15 -27 -27 -6 -13 -21 -43 -34 -67 -33 -66 -109 -171 -157 -217 -23 -23 -47 -52 -52 -66 -6 -17 -20 -27 -40 -31 -17 -4 -31 -11 -31 -17 0 -16 -58 -70 -75 -70 -8 0 -21 -15 -29 -34 -11 -26 -22 -36 -48 -41 -58 -12 -68 -16 -68 -31 0 -8 -8 -18 -17 -21 -10 -4 -24 -13 -31 -20 -7 -7 -24 -13 -38 -13 -14 0 -24 -6 -24 -14 0 -26 -59 -36 -79 -12 -7 8 -40 15 -80 18 -63 5 -72 8 -100 39 -17 19 -39 43 -49 54 -24 25 -77 136 -91 190 -6 22 -11 58 -11 81 0 28 -6 47 -20 59 -16 14 -20 31 -20 81 0 35 -4 65 -9 68 -30 19 -39 448 -12 601 25 143 31 184 39 251 5 39 16 84 25 100 8 16 18 36 22 44 7 19 24 46 50 85 12 17 28 47 38 68 9 20 23 37 32 37 8 0 22 17 30 37 9 21 19 40 23 43 13 9 72 98 72 108 0 5 9 17 20 27 11 10 20 24 20 30 0 7 9 15 20 18 12 3 22 17 26 35 4 18 14 32 25 35 11 3 19 14 19 26 0 12 4 21 8 21 8 0 72 85 72 95 0 3 18 28 40 57 22 29 40 58 40 64 0 24 26 63 44 66 11 2 24 16 30 33 6 17 30 55 54 86 23 31 42 60 42 65 0 5 16 24 34 42 19 19 38 47 41 64 5 21 16 34 35 41 19 7 30 20 34 39 3 16 16 43 29 61 13 18 27 40 30 50 4 9 11 17 16 17 5 0 21 20 35 45 15 25 31 45 35 45 5 0 16 17 24 39 11 27 25 42 46 49 17 6 31 18 31 26 0 12 10 16 38 16 36 0 40 -2 50 -39z m1032 -361 c0 -29 -70 -160 -86 -160 -8 0 -14 -7 -14 -15 0 -9 -11 -20 -25 -27 -24 -11 -55 -62 -55 -91 0 -9 -11 -24 -24 -34 -13 -10 -29 -36 -36 -58 -21 -66 -42 -121 -61 -157 -5 -10 -9 -38 -9 -62 0 -25 -4 -48 -10 -51 -6 -4 -10 -68 -10 -160 0 -92 4 -156 10 -160 6 -3 10 -37 10 -75 0 -38 5 -72 10 -75 6 -3 10 -24 10 -45 0 -21 5 -42 10 -45 6 -3 10 -26 10 -50 0 -24 4 -45 9 -47 18 -6 31 -209 31 -479 0 -147 -4 -278 -9 -291 -5 -13 -15 -68 -22 -123 -9 -76 -16 -103 -31 -113 -10 -8 -18 -25 -18 -42 0 -28 -48 -130 -76 -161 -8 -8 -14 -20 -14 -27 0 -6 -16 -16 -35 -22 -32 -11 -84 -73 -77 -94 5 -16 -21 -36 -48 -36 -15 0 -33 -7 -40 -15 -7 -8 -21 -15 -31 -15 -10 0 -23 -9 -29 -20 -6 -11 -20 -20 -30 -20 -11 0 -25 -9 -32 -20 -10 -16 -24 -20 -70 -20 -50 0 -58 -3 -58 -19 0 -19 5 -18 -182 -37 -38 -3 -68 -10 -68 -15 0 -5 -65 -9 -145 -9 l-145 0 0 24 c0 31 65 139 90 148 11 4 20 14 20 23 0 10 10 15 33 15 25 0 35 6 45 27 6 15 12 32 12 38 0 6 18 24 39 41 22 16 42 36 45 44 3 8 17 33 31 55 16 27 23 49 19 67 -3 14 0 29 5 33 6 3 11 17 11 29 0 13 7 29 15 36 9 7 23 29 32 49 9 20 27 50 38 66 12 17 33 53 46 82 24 52 51 73 93 73 15 0 26 7 29 20 4 15 14 20 40 20 32 0 37 -4 61 -52 14 -29 26 -59 26 -67 0 -17 -61 -81 -77 -81 -5 0 -19 -11 -31 -25 -12 -14 -30 -25 -39 -25 -10 0 -24 -13 -31 -30 -7 -16 -22 -32 -33 -35 -10 -4 -19 -11 -19 -17 0 -5 -9 -23 -20 -38 -33 -47 -36 -83 -7 -113 13 -15 35 -27 47 -27 13 0 31 -7 40 -15 10 -9 45 -18 81 -21 57 -6 66 -4 83 15 11 11 27 21 37 21 10 0 23 9 29 20 6 12 21 20 35 20 16 0 25 6 25 15 0 9 7 18 15 21 8 4 15 14 15 24 0 11 10 20 24 24 14 3 28 16 32 28 3 12 20 34 36 49 l30 27 -1 174 c-1 179 -8 216 -46 248 -8 7 -15 20 -15 29 0 9 -14 43 -30 76 -16 33 -30 66 -30 73 0 8 -13 26 -29 42 -15 16 -52 76 -81 134 -29 58 -57 106 -61 106 -4 0 -16 17 -26 38 -9 20 -22 42 -29 47 -6 6 -15 34 -18 64 -4 30 -14 70 -22 89 -8 19 -14 45 -14 58 0 12 -4 26 -10 29 -5 3 -10 21 -10 40 0 19 -4 36 -8 39 -10 6 6 206 17 220 5 6 15 37 22 69 12 49 17 57 36 57 13 0 23 6 23 14 0 19 21 57 48 86 13 14 33 44 44 67 12 24 25 43 29 43 4 0 11 9 14 20 3 11 12 20 20 20 15 0 45 43 45 65 0 9 12 18 30 22 17 3 30 9 30 13 0 9 50 59 114 115 26 22 59 50 73 63 14 12 32 22 39 22 8 0 23 8 33 18 10 9 35 28 55 42 19 14 36 30 36 37 0 12 25 19 78 22 26 1 32 -3 32 -19z m-2142 -2813 c9 -7 42 -19 74 -26 31 -7 59 -18 61 -25 3 -8 29 -17 59 -21 29 -4 58 -11 63 -15 6 -5 23 -10 40 -12 24 -2 30 -9 37 -38 8 -39 0 -110 -13 -110 -4 0 -11 -15 -14 -33 -6 -32 -66 -107 -86 -107 -5 0 -9 -7 -9 -15 0 -8 -4 -15 -10 -15 -5 0 -10 -5 -10 -11 0 -6 -9 -24 -20 -39 -17 -24 -30 -29 -81 -35 -37 -4 -63 -12 -66 -21 -3 -8 -18 -14 -34 -14 -22 0 -29 5 -29 20 0 15 -7 20 -29 20 -24 0 -31 6 -40 31 -6 18 -11 40 -11 50 0 10 -9 34 -20 53 -11 20 -23 67 -27 108 -15 143 -4 210 41 251 26 24 37 28 69 24 21 -3 46 -12 55 -20z"/>
<path d="M2610 2871 c-19 -10 -54 -22 -77 -25 -23 -4 -47 -14 -54 -22 -6 -8 -16 -14 -21 -14 -5 0 -28 -18 -50 -40 -23 -22 -48 -40 -55 -40 -8 0 -17 -8 -20 -17 -4 -10 -15 -25 -25 -33 -28 -24 -78 -129 -78 -165 0 -19 -4 -37 -10 -40 -31 -19 14 -115 55 -115 8 0 15 -4 15 -9 0 -5 13 -14 29 -21 16 -6 32 -18 34 -25 3 -7 34 -15 79 -19 40 -4 80 -14 89 -22 9 -8 46 -17 83 -21 36 -3 71 -12 77 -19 16 -20 101 -18 137 3 33 19 38 38 49 206 4 70 1 111 -17 195 -27 130 -33 144 -87 200 -24 24 -43 48 -43 53 0 16 -74 10 -110 -10z"/>
<path d="M2123 2093 c-4 -10 -14 -23 -22 -30 -13 -9 -17 -39 -19 -152 -3 -129 -2 -146 22 -215 14 -41 26 -83 26 -95 0 -11 9 -22 20 -26 14 -4 20 -15 20 -36 0 -18 7 -33 20 -41 11 -7 20 -18 20 -25 0 -6 9 -15 20 -18 11 -3 20 -11 20 -16 0 -12 67 -12 75 1 3 6 25 10 49 10 30 0 48 6 61 20 10 11 24 20 31 20 7 0 23 18 35 40 16 29 29 40 46 40 16 0 27 8 33 25 5 14 17 28 25 31 8 4 15 12 15 19 0 7 11 20 25 29 14 9 25 24 25 34 0 22 22 72 33 72 4 0 7 6 7 13 0 7 8 30 18 51 22 45 18 82 -12 98 -11 6 -33 24 -48 39 -21 21 -41 30 -80 35 -29 3 -58 13 -64 21 -7 7 -29 17 -50 20 -22 3 -46 11 -54 18 -15 12 -176 35 -250 35 -30 0 -42 -5 -47 -17z"/>
</g>
</svg>