<svg xmlns="http://www.w3.org/2000/svg" version="1.0" preserveAspectRatio="xMidYMid meet" viewBox="48.13 268 982.7 659.46">
<g transform="translate(0.000000,1080.000000) scale(0.100000,-0.100000)" stroke="none">
<path d="M513 8096 l-28 -24 -3 -2834 c-2 -2034 0 -2844 8 -2871 7 -25 22 -45 43 -57 31 -20 64 -20 1709 -20 l1677 0 11 -57 c52 -248 288 -452 682 -587 434 -149 1015 -161 1471 -30 437 126 710 337 777 603 l16 66 1685 5 c1833 5 1715 1 1739 60 7 17 9 918 8 2872 l-3 2846 -24 26 -24 26 -4858 0 -4858 0 -28 -24z m9448 -137 c52 -18 112 -72 139 -125 19 -37 25 -63 25 -113 -1 -85 -17 -130 -64 -178 -153 -158 -412 -72 -438 145 -21 182 163 330 338 271z m-4457 -199 c-1 -25 -14 -108 -29 -185 -42 -224 -38 -210 -65 -211 -14 -1 -30 6 -37 15 -11 15 -14 15 -41 -1 -42 -25 -75 -22 -111 8 -37 31 -49 81 -32 142 23 87 87 140 181 152 44 5 45 5 55 55 13 65 21 77 53 73 25 -3 27 -6 26 -48z m1563 15 c2 -16 -14 -113 -35 -215 l-37 -185 -37 -3 c-45 -4 -45 -8 -18 130 11 57 27 144 37 193 20 104 27 117 62 113 21 -2 26 -9 28 -33z m179 22 c4 -10 -48 -303 -71 -404 -4 -18 -12 -23 -40 -23 -18 0 -36 3 -38 8 -3 4 1 36 8 72 8 36 26 126 40 200 15 74 31 140 37 147 14 17 57 17 64 0z m-2516 -34 c71 -40 102 -120 80 -207 -20 -77 -61 -130 -126 -162 -49 -24 -70 -28 -145 -28 -53 -1 -92 4 -99 10 -9 9 -3 56 21 185 38 206 41 216 71 222 48 11 164 -1 198 -20z m1656 12 c8 -20 33 -19 55 1 19 17 49 13 49 -6 0 -24 -49 -60 -83 -60 -50 0 -72 23 -68 68 1 17 40 15 47 -3z m-1297 -110 c40 -20 57 -66 41 -105 -16 -39 -57 -60 -126 -67 -44 -5 -54 -9 -54 -24 0 -28 36 -42 90 -35 38 5 49 3 54 -10 11 -28 7 -35 -29 -50 -84 -35 -166 -4 -194 73 -13 38 -13 47 2 96 33 104 137 163 216 122z m678 -5 c57 -34 56 -108 -3 -142 -16 -10 -54 -21 -84 -25 -58 -9 -70 -21 -44 -48 14 -14 28 -16 70 -11 48 5 53 4 59 -15 11 -32 -15 -50 -81 -55 -96 -8 -144 34 -144 125 0 77 35 137 100 172 46 24 87 24 127 -1z m318 6 c48 -20 69 -58 68 -121 -3 -101 -64 -172 -157 -182 -100 -12 -159 70 -131 178 29 107 127 163 220 125z m416 -2 c5 -3 9 -19 9 -35 0 -39 -48 -277 -62 -303 -31 -63 -106 -95 -193 -82 -47 8 -57 19 -44 54 8 21 13 23 54 16 50 -7 83 8 111 51 22 33 15 39 -24 19 -39 -19 -59 -13 -100 27 -53 52 -54 94 -5 177 36 62 106 95 186 88 32 -3 63 -8 68 -12z m1038 10 c28 -6 31 -10 31 -43 0 -20 -5 -52 -10 -72 -6 -20 -14 -70 -18 -110 -7 -73 -8 -74 -37 -77 -19 -3 -33 2 -42 15 -9 12 -16 14 -21 7 -10 -16 -48 -34 -71 -34 -64 0 -108 61 -96 133 23 134 130 208 264 181z m297 -9 c12 -30 -5 -62 -35 -68 -37 -8 -64 -52 -80 -132 -19 -91 -19 -93 -52 -97 -41 -6 -45 7 -29 95 7 40 17 101 24 137 10 58 14 65 35 68 16 3 30 -3 38 -15 9 -12 16 -14 21 -7 9 14 43 33 60 34 7 0 15 -7 18 -15z m-1150 -8 c2 -7 -2 -46 -11 -86 -20 -97 -20 -128 4 -136 10 -3 25 -3 33 0 21 8 54 72 62 120 4 22 12 57 17 78 9 34 13 37 46 37 l36 0 -7 -47 c-14 -107 -43 -244 -53 -254 -8 -8 -20 -7 -43 5 -28 14 -35 14 -61 1 -59 -31 -117 -8 -131 52 -6 21 26 215 37 233 9 15 65 12 71 -3z m1300 0 c6 -17 -43 -267 -56 -282 -12 -14 -46 -13 -61 2 -7 7 -4 41 11 111 11 55 20 107 20 115 0 9 4 27 10 41 7 20 16 26 40 26 17 0 33 -6 36 -13z m344 -87 c38 -70 70 -144 70 -163 0 -10 5 -27 10 -37 17 -32 27 -150 20 -225 -8 -78 -43 -162 -88 -212 -16 -18 -32 -33 -36 -33 -4 0 -16 -8 -26 -18 -11 -10 -57 -37 -102 -61 -89 -47 -231 -138 -236 -153 -2 -4 -9 -14 -15 -21 -18 -19 -37 -79 -37 -118 0 -106 74 -193 148 -174 23 6 24 9 20 61 -3 31 -9 59 -15 62 -16 11 -24 61 -13 82 7 13 21 20 39 20 51 0 56 -18 54 -181 -3 -132 0 -156 22 -235 28 -96 27 -114 -7 -114 -26 0 -125 63 -146 92 -7 10 -17 18 -23 18 -13 0 -81 77 -104 119 -11 20 -23 38 -26 41 -24 19 -39 76 -39 144 0 78 18 176 32 176 4 0 8 7 8 15 0 16 57 136 69 145 3 3 14 20 24 38 10 18 28 43 40 55 12 13 31 36 42 52 25 36 86 110 125 152 17 17 30 34 30 38 0 4 15 30 34 58 52 80 70 168 62 305 l-7 113 26 -3 c18 -2 32 -14 45 -38z m544 -152 c3 -29 11 -120 17 -203 6 -82 14 -202 19 -265 13 -178 12 -341 -5 -418 -15 -74 -63 -205 -77 -210 -4 -2 -8 -9 -8 -16 0 -20 -70 -134 -107 -174 -18 -20 -33 -40 -33 -44 0 -4 -5 -8 -11 -8 -6 0 -27 -17 -47 -38 -20 -20 -48 -43 -62 -50 -14 -7 -36 -19 -50 -27 -29 -17 -103 -20 -130 -5 -32 17 -79 100 -86 151 -4 27 -10 49 -13 49 -10 0 -31 155 -31 226 0 110 29 264 62 332 17 35 36 69 42 75 6 7 29 39 51 72 21 33 42 62 47 63 4 2 8 10 8 17 0 7 4 15 9 17 5 2 30 35 55 73 25 39 52 77 61 86 8 9 15 19 15 23 0 8 39 63 63 88 9 10 17 25 17 33 0 8 6 15 14 15 8 0 16 10 20 23 3 12 13 31 23 42 10 11 29 36 43 55 61 89 86 93 94 18z m496 -150 c0 -12 -18 -43 -39 -69 -50 -58 -77 -109 -92 -174 -6 -27 -16 -59 -21 -71 -12 -26 -5 -121 17 -234 24 -130 36 -341 24 -440 -15 -133 -69 -253 -122 -273 -9 -3 -17 -12 -18 -19 0 -16 -105 -68 -135 -68 -12 0 -24 -7 -28 -15 -3 -9 -18 -15 -37 -15 -18 0 -61 -5 -96 -11 -104 -18 -160 3 -118 45 8 8 15 18 15 23 0 5 14 17 31 27 17 10 35 29 41 42 6 13 16 24 22 24 12 0 56 77 56 98 0 7 9 23 20 34 11 12 29 41 40 64 20 41 40 54 88 54 17 0 22 -6 22 -24 0 -17 -16 -37 -52 -67 -64 -53 -68 -58 -68 -87 0 -60 82 -80 154 -37 25 15 46 30 46 34 0 3 12 19 27 35 22 24 27 40 31 100 4 64 1 78 -27 140 -17 38 -31 75 -31 82 0 8 -4 14 -9 14 -5 0 -28 35 -52 78 -23 42 -45 79 -49 82 -4 3 -10 19 -13 35 -3 17 -10 59 -17 94 -10 51 -10 74 1 120 7 31 12 59 11 64 -1 4 5 7 13 7 8 0 15 5 15 11 0 18 79 127 118 163 78 72 108 96 135 107 15 6 27 16 27 21 0 9 36 26 58 27 6 1 12 -9 12 -21z m-3760 -121 c133 -48 197 -141 175 -254 -10 -55 -110 -150 -206 -196 -85 -41 -241 -83 -369 -99 -187 -24 -506 -11 -855 33 -332 42 -498 75 -725 146 -199 61 -459 23 -684 -102 -103 -57 -138 -77 -152 -90 -6 -5 -26 -21 -44 -35 -140 -105 -309 -283 -388 -411 -72 -114 -96 -189 -96 -304 -1 -118 18 -169 83 -228 50 -45 75 -52 176 -51 218 3 426 158 553 410 50 100 74 196 76 302 1 72 -2 85 -18 98 -34 24 -64 17 -110 -29 -54 -55 -133 -221 -160 -339 -3 -15 -15 -29 -26 -33 -15 -5 -231 -145 -307 -200 -22 -16 -33 13 -33 92 0 147 52 308 144 447 93 140 212 224 353 247 193 33 297 -42 324 -237 46 -325 -123 -673 -396 -816 -108 -57 -282 -87 -400 -68 -146 23 -261 102 -318 220 -29 60 -31 73 -31 165 0 78 5 116 23 170 29 87 86 196 143 272 24 32 50 67 58 78 8 11 64 70 125 130 312 314 778 507 1221 506 168 0 366 -34 774 -135 291 -72 670 -136 805 -136 118 0 263 45 343 107 48 36 72 80 72 131 0 36 -6 49 -31 73 -17 16 -55 36 -85 46 -46 14 -65 15 -119 6 -35 -6 -88 -23 -117 -37 -82 -40 -167 -129 -154 -161 12 -32 82 -8 160 54 37 30 42 31 137 31 55 0 99 -3 99 -8 0 -30 -95 -124 -174 -171 -45 -27 -70 -35 -126 -39 -61 -4 -74 -2 -113 21 -53 31 -82 83 -74 133 16 97 140 217 277 267 29 11 155 7 190 -6z m-1450 -635 c0 -15 -6 -36 -14 -47 -54 -80 -133 -276 -156 -390 -4 -22 -17 -83 -28 -135 -11 -52 -30 -144 -42 -205 -12 -60 -26 -129 -31 -151 -31 -156 -142 -428 -236 -577 -83 -133 -274 -335 -389 -412 -32 -22 -61 -43 -64 -46 -3 -4 -54 -32 -114 -63 -140 -72 -263 -112 -486 -158 -88 -18 -503 -18 -580 0 -190 45 -289 91 -375 176 -88 87 -110 145 -110 291 1 124 14 165 84 252 127 160 391 177 499 33 34 -44 34 -46 30 -127 -4 -74 -8 -87 -35 -120 -38 -49 -61 -59 -178 -84 -154 -32 -200 -63 -197 -136 3 -67 43 -111 147 -159 107 -50 216 -68 360 -61 131 6 197 20 301 64 125 53 211 110 313 211 109 108 136 141 207 257 57 92 51 80 182 375 93 209 165 368 241 532 82 178 239 394 403 554 62 61 128 121 146 133 68 47 122 44 122 -7z m1560 -447 c0 -8 3 -2 -279 -557 -133 -263 -239 -478 -234 -478 15 0 86 51 161 117 102 88 142 113 219 134 85 24 110 24 165 0 62 -26 105 -72 113 -121 10 -60 -19 -143 -69 -194 -66 -68 -122 -83 -170 -45 -53 42 -28 118 66 200 48 41 46 64 -5 47 -34 -12 -267 -242 -267 -264 0 -7 9 -15 19 -19 11 -3 33 -20 50 -37 58 -59 52 -180 -14 -290 -19 -33 -35 -61 -35 -63 0 -3 11 -12 24 -20 20 -13 32 -14 64 -6 47 13 147 77 223 142 52 45 89 62 89 41 0 -22 -104 -154 -166 -211 -105 -96 -167 -121 -304 -120 -142 0 -189 41 -189 164 -1 97 26 177 90 272 16 23 29 44 29 47 0 3 -25 6 -56 6 -55 0 -124 23 -124 42 0 34 -35 -27 -148 -252 l-127 -255 -134 -3 c-74 -1 -138 1 -143 6 -8 8 67 165 147 307 12 22 57 108 100 190 43 83 100 193 128 245 27 52 83 160 125 240 41 80 89 172 107 205 77 143 116 218 175 335 35 69 74 142 87 163 l23 37 130 0 c72 0 130 -2 130 -5z m2626 -150 c22 -9 46 -19 54 -24 9 -5 35 -12 58 -16 39 -6 42 -9 42 -38 0 -33 -25 -82 -60 -117 -11 -11 -20 -24 -20 -28 0 -13 -94 -35 -98 -23 -2 6 -10 11 -17 11 -19 0 -47 91 -48 160 -1 49 2 62 18 74 25 19 25 19 71 1z m-1110 -255 c48 -30 71 -96 54 -153 -6 -23 -19 -50 -28 -61 -64 -70 -181 -57 -232 26 -37 62 -16 152 44 189 42 26 119 25 162 -1z m-722 -256 c27 -10 18 -47 -24 -103 -22 -29 -40 -62 -40 -73 0 -11 30 -69 66 -129 94 -154 113 -206 114 -304 l0 -80 75 153 c41 84 75 157 75 162 0 6 5 10 10 10 6 0 10 6 10 13 1 6 20 50 43 97 l43 85 137 3 c117 2 137 0 137 -12 0 -9 -53 -125 -118 -258 -172 -352 -187 -387 -173 -401 16 -16 85 21 131 69 22 23 40 45 40 48 0 6 36 59 74 109 39 51 72 49 69 -5 -4 -70 -79 -190 -189 -304 -106 -109 -200 -164 -281 -164 -56 0 -97 19 -124 58 -21 31 -24 46 -23 120 0 72 -2 81 -13 65 -89 -126 -186 -201 -314 -243 -80 -26 -156 -25 -241 1 -114 36 -180 108 -181 199 -1 67 19 107 68 135 49 29 97 32 145 7 29 -14 37 -25 47 -65 19 -77 -4 -128 -71 -158 -36 -16 -37 -18 -18 -28 29 -15 83 -14 123 3 122 52 207 273 216 561 2 83 1 145 -4 140 -4 -6 -26 -25 -48 -44 -22 -19 -76 -66 -120 -106 -134 -121 -152 -135 -168 -135 -23 0 -29 17 -16 42 12 24 107 117 257 253 49 44 122 124 161 177 80 107 90 115 125 102z m1063 -66 c33 -37 53 -84 53 -127 0 -22 4 -43 10 -46 5 -3 30 8 54 24 25 17 49 31 55 31 6 0 11 3 11 8 0 7 9 12 100 50 146 62 278 23 296 -86 4 -23 9 -42 13 -42 4 0 33 20 66 45 33 25 66 45 73 45 6 0 12 3 12 8 0 19 127 56 196 56 62 1 75 -2 106 -26 45 -34 73 -110 65 -173 -12 -84 -52 -191 -147 -392 -93 -194 -91 -208 24 -184 76 16 114 35 204 105 94 72 112 73 75 3 -79 -153 -232 -268 -387 -289 -176 -25 -272 44 -253 181 5 39 19 72 116 273 85 176 119 292 105 364 -9 46 -28 52 -78 25 -143 -77 -267 -282 -397 -661 -34 -100 -36 -121 -9 -145 39 -35 26 -43 -87 -51 -60 -4 -128 -8 -153 -8 l-45 -1 2 68 c1 73 36 175 118 352 65 139 72 155 94 223 81 249 21 314 -136 149 -123 -128 -192 -248 -272 -467 -60 -166 -101 -273 -110 -290 -6 -11 -46 -18 -166 -28 -86 -7 -160 -10 -163 -7 -12 12 56 162 254 560 89 180 111 245 81 245 -7 0 -44 -31 -82 -70 -106 -107 -146 -87 -59 30 49 67 217 241 249 259 35 19 89 13 112 -11z m-3095 -10 l41 -23 14 23 c14 21 23 22 124 22 73 0 109 -4 109 -11 0 -12 -72 -150 -146 -281 -24 -43 -44 -82 -44 -88 0 -5 -4 -10 -10 -10 -5 0 -10 -4 -10 -10 0 -5 -40 -86 -90 -179 -49 -93 -90 -174 -90 -180 0 -18 19 -12 68 21 64 44 120 102 177 183 33 46 55 66 67 59 16 -10 3 -96 -23 -146 -44 -86 -155 -216 -230 -268 -18 -13 -36 -27 -39 -31 -3 -4 -35 -21 -70 -38 -120 -57 -208 -36 -251 59 l-22 49 -31 -39 c-94 -116 -251 -133 -347 -38 -120 119 -54 308 217 628 127 152 281 275 377 306 69 21 163 18 209 -8z m3484 -1299 c68 -12 85 -30 64 -68 -8 -17 -16 -19 -43 -13 -70 15 -160 8 -207 -18 -147 -82 -147 -338 0 -418 42 -22 53 -24 147 -19 l101 6 7 -26 c3 -14 2 -30 -3 -35 -29 -29 -180 -36 -259 -13 -63 19 -133 80 -164 142 -20 40 -23 64 -24 148 0 85 3 107 24 148 51 105 135 157 285 176 5 0 38 -4 72 -10z m-5919 -29 c22 -12 47 -35 56 -50 33 -56 15 -149 -35 -185 l-23 -15 38 -35 c73 -67 82 -147 26 -224 -20 -28 -41 -43 -76 -55 -59 -19 -188 -31 -237 -22 l-36 7 2 297 3 297 35 7 c19 4 74 5 121 4 67 -3 95 -8 126 -26z m810 17 c1 -2 47 -135 102 -295 107 -313 106 -307 41 -300 -30 3 -33 7 -60 86 -16 45 -32 87 -35 92 -9 15 -190 13 -202 -2 -6 -7 -23 -50 -37 -95 l-28 -83 -39 0 c-31 0 -39 4 -39 18 0 38 186 573 202 584 11 6 87 2 95 -5z m716 5 c4 -1 7 -60 7 -132 0 -71 3 -130 8 -130 4 0 17 15 29 33 13 18 31 42 41 53 9 10 33 39 52 64 81 105 133 137 173 108 16 -12 15 -15 -11 -43 -15 -17 -49 -57 -77 -90 -27 -33 -60 -71 -72 -85 -13 -14 -23 -29 -23 -33 0 -5 49 -81 109 -170 61 -88 108 -164 105 -169 -3 -4 -24 -8 -47 -8 l-42 0 -89 136 c-50 74 -94 138 -98 141 -5 2 -20 -8 -33 -23 -22 -26 -25 -39 -27 -139 l-3 -110 -34 -3 c-20 -2 -37 2 -42 10 -13 20 -11 572 2 585 8 8 42 11 72 5z m830 -4 c15 -12 17 -43 19 -268 l3 -255 115 -2 c63 -2 119 -3 123 -3 5 0 7 -15 5 -32 l-3 -33 -167 -3 -168 -2 0 299 c0 230 3 300 13 304 22 9 43 7 60 -5z m964 -2 c9 -9 200 -586 195 -590 -3 -3 -22 -6 -43 -6 -41 0 -37 -5 -75 104 -13 39 -30 73 -37 78 -17 11 -165 10 -187 -2 -10 -5 -21 -22 -24 -37 -4 -16 -16 -54 -28 -85 -20 -57 -21 -58 -59 -58 -31 0 -39 4 -39 18 0 9 32 109 71 222 39 113 81 240 95 282 22 68 28 77 52 81 23 4 73 0 79 -7z m602 -1 c8 -9 107 -311 136 -419 8 -26 16 -50 18 -52 2 -2 32 80 67 184 100 299 96 289 132 296 60 12 61 -3 8 -152 -176 -497 -153 -447 -210 -447 l-45 0 -97 290 c-62 189 -93 294 -87 301 11 14 64 13 78 -1z m1022 -4 c3 -3 15 -35 27 -71 11 -36 55 -163 96 -284 42 -120 73 -222 70 -227 -3 -5 -23 -9 -44 -9 l-38 0 -27 80 c-15 44 -33 87 -42 95 -16 16 -167 22 -190 7 -7 -5 -26 -46 -41 -93 -27 -81 -29 -84 -61 -87 -18 -2 -38 1 -43 6 -6 6 21 98 72 248 45 132 89 262 98 291 13 43 21 53 42 56 28 4 72 -2 81 -12z m1574 -296 l0 -300 -27 -3 c-15 -2 -36 2 -48 8 -19 10 -20 19 -20 290 0 153 3 286 6 295 5 12 17 15 48 13 l41 -3 0 -300z m-3707 -1413 c2 -165 0 -193 -13 -198 -8 -4 -22 -1 -30 6 -12 10 -15 42 -15 167 0 153 0 154 -21 143 -26 -14 -52 -5 -47 16 4 21 77 64 103 61 19 -2 20 -10 23 -195z m392 178 c82 -58 80 -239 -3 -323 -31 -30 -105 -60 -138 -55 -26 3 -39 36 -17 42 76 22 112 41 129 70 25 41 24 47 -7 36 -110 -42 -197 61 -150 175 29 68 127 97 186 55z m408 -7 c3 -23 -2 -36 -96 -234 -55 -117 -80 -148 -103 -133 -17 10 -9 34 61 178 39 80 70 147 70 150 0 3 -36 6 -80 6 -84 0 -100 9 -86 45 5 13 25 15 118 13 107 -3 113 -4 116 -25z m320 -1 c68 -63 68 -214 0 -297 -36 -43 -97 -74 -146 -75 -29 0 -33 3 -30 22 2 16 14 26 43 35 22 7 47 16 55 19 18 6 65 72 57 80 -3 3 -14 1 -25 -5 -49 -26 -133 4 -152 55 -37 96 24 193 121 194 38 0 53 -5 77 -28z"/>
<path d="M9795 7903 c-76 -39 -115 -104 -115 -187 0 -174 195 -268 323 -156 59 52 79 125 61 218 -8 38 -64 106 -106 126 -40 20 -124 20 -163 -1z m144 -58 c44 -22 55 -71 25 -113 -10 -14 -13 -30 -8 -40 16 -35 32 -106 27 -119 -6 -14 -22 -17 -39 -5 -7 4 -17 25 -23 47 -13 48 -21 59 -43 68 -35 13 -48 -2 -48 -57 0 -60 -3 -66 -31 -59 -18 5 -19 15 -19 142 0 76 3 141 7 144 12 13 124 7 152 -8z"/>
<path d="M9834 7806 c-12 -31 0 -71 23 -74 57 -8 88 54 38 76 -34 16 -54 15 -61 -2z"/>
<path d="M5315 7594 c-31 -31 -46 -61 -47 -97 -2 -65 40 -87 81 -43 21 23 54 132 45 148 -9 14 -62 8 -79 -8z"/>
<path d="M4574 7708 c-4 -6 -17 -68 -30 -137 -26 -141 -25 -145 41 -135 92 14 152 91 143 184 -5 49 -16 68 -55 88 -28 15 -90 15 -99 0z"/>
<path d="M4982 7594 c-12 -8 -22 -22 -22 -31 0 -12 7 -14 38 -8 41 7 68 27 58 44 -10 16 -48 14 -74 -5z"/>
<path d="M5669 7605 c-26 -14 -45 -43 -35 -53 9 -9 74 9 86 23 10 12 10 18 0 30 -15 18 -18 18 -51 0z"/>
<path d="M5983 7602 c-18 -11 -43 -77 -43 -111 0 -48 49 -78 86 -53 36 24 58 134 32 160 -13 13 -57 16 -75 4z"/>
<path d="M6336 7583 c-27 -29 -40 -73 -34 -114 2 -20 9 -24 38 -24 30 0 37 5 56 40 13 22 24 58 26 80 3 38 2 40 -29 43 -24 2 -37 -4 -57 -25z"/>
<path d="M7433 7605 c-43 -18 -73 -69 -73 -122 0 -50 25 -65 65 -39 35 23 71 155 47 170 -4 2 -22 -2 -39 -9z"/>
<path d="M8590 6781 c-91 -35 -169 -126 -170 -198 0 -39 105 -89 227 -108 68 -11 81 -2 89 62 10 85 -11 185 -49 228 -35 40 -36 40 -97 16z"/>
<path d="M8380 6412 c-20 -16 -23 -27 -22 -81 1 -70 21 -171 34 -171 4 0 8 -6 8 -13 0 -8 11 -23 24 -36 21 -19 28 -21 67 -12 27 6 52 20 64 35 12 15 26 26 33 26 7 0 12 4 12 8 0 5 8 17 18 28 9 10 27 41 40 67 18 38 20 52 11 68 -13 25 -97 64 -170 78 -30 6 -63 13 -75 16 -12 4 -29 -1 -44 -13z"/>
<path d="M4354 5218 c-16 -12 -52 -45 -80 -72 -173 -174 -304 -403 -304 -532 0 -82 48 -76 127 16 122 140 374 557 360 595 -9 23 -69 19 -103 -7z"/>
<path d="M1858 3954 c-5 -4 -8 -45 -8 -91 0 -98 4 -102 89 -85 68 14 91 38 91 96 -1 33 -6 45 -27 61 -28 20 -131 34 -145 19z"/>
<path d="M1850 3597 c0 -110 3 -117 49 -117 42 0 122 32 137 55 27 41 21 93 -15 128 -27 28 -38 32 -101 35 l-70 4 0 -105z"/>
<path d="M2766 3814 c-20 -60 -36 -115 -36 -122 0 -8 22 -12 75 -12 41 0 75 3 75 8 0 4 -18 58 -39 121 l-39 113 -36 -108z"/>
<path d="M5307 3903 c-8 -13 -67 -201 -67 -212 0 -7 29 -11 75 -11 41 0 75 4 75 8 0 9 -70 215 -74 220 -2 2 -6 0 -9 -5z"/>
<path d="M6897 3807 c-20 -62 -37 -116 -37 -120 0 -4 34 -7 75 -7 43 0 75 4 75 10 0 10 -69 222 -73 227 -2 1 -20 -48 -40 -110z"/>
<path d="M5131 2424 c-28 -36 -27 -79 4 -109 28 -29 45 -31 87 -9 29 15 30 18 25 62 -9 78 -74 109 -116 56z"/>
<path d="M5852 2430 c-16 -15 -22 -33 -22 -60 0 -73 62 -103 116 -57 24 21 26 28 20 61 -13 70 -69 97 -114 56z"/>
</g>
</svg>